<?xml version="1.0" encoding="UTF-8" standalone="no"?>
<!DOCTYPE svg PUBLIC "-//W3C//DTD SVG 1.1//EN" "http://www.w3.org/Graphics/SVG/1.1/DTD/svg11.dtd">
<svg width="100%" height="100%" viewBox="0 0 512 512" version="1.1" xmlns="http://www.w3.org/2000/svg" xmlns:xlink="http://www.w3.org/1999/xlink" xml:space="preserve" xmlns:serif="http://www.serif.com/" style="fill-rule:evenodd;clip-rule:evenodd;stroke-linejoin:round;stroke-miterlimit:2;">
    <g transform="matrix(0.541867,0,0,0.541867,-256,-256)">
        <path d="M1417.32,614.173C1417.32,535.949 1353.82,472.441 1275.59,472.441L614.173,472.441C535.949,472.441 472.441,535.949 472.441,614.173L472.441,1275.59C472.441,1353.82 535.949,1417.32 614.173,1417.32L1275.59,1417.32C1353.82,1417.32 1417.32,1353.82 1417.32,1275.59L1417.32,614.173Z" style="fill:rgb(196,0,0);"/>
        <clipPath id="_clip1">
            <path d="M1417.32,614.173C1417.32,535.949 1353.82,472.441 1275.59,472.441L614.173,472.441C535.949,472.441 472.441,535.949 472.441,614.173L472.441,1275.59C472.441,1353.82 535.949,1417.32 614.173,1417.32L1275.59,1417.32C1353.82,1417.32 1417.32,1353.82 1417.32,1275.59L1417.32,614.173Z"/>
        </clipPath>
        <g clip-path="url(#_clip1)">
            <g transform="matrix(1.07912,0,0,1.12633,128.445,-1318.45)">
                <path d="M636.468,2314.96C628.224,2314.96 620.392,2312.9 612.972,2308.78C605.552,2304.66 601.842,2298.47 601.842,2290.23L601.842,1736.21C601.842,1729.61 604.453,1724.11 609.674,1719.72C614.896,1715.32 621.629,1712.85 629.873,1712.3L785.692,1712.3C818.669,1712.3 848.349,1718.21 874.731,1730.02C901.113,1741.84 921.998,1760.66 937.388,1786.5C952.777,1812.33 960.472,1846.95 960.472,1890.38L960.472,1897.8C960.472,1940.67 952.64,1975.29 936.976,2001.67C921.311,2028.06 900.013,2047.16 873.082,2058.97C846.15,2070.79 815.921,2076.7 782.394,2076.7L671.095,2076.7L671.095,2290.23C671.095,2298.47 667.522,2304.66 660.377,2308.78C653.232,2312.9 645.262,2314.96 636.468,2314.96ZM671.095,2018.99L782.394,2018.99C816.47,2018.99 843.127,2009.37 862.364,1990.13C881.601,1970.9 891.219,1941.49 891.219,1901.92L891.219,1892.03C891.219,1851.9 881.601,1822.36 862.364,1803.4C843.127,1784.44 816.47,1774.95 782.394,1774.95L671.095,1774.95L671.095,2018.99Z" style="fill:white;fill-rule:nonzero;"/>
            </g>
            <g transform="matrix(0.508272,-0.269358,0.269358,0.508272,368.723,875.052)">
                <g id="Cursor">
                    <g>
                        <path d="M1370.08,1606.3L1417.32,1606.3L1417.32,1086.61L1370.08,1086.61L1370.08,1228.35L1322.84,1228.35L1322.84,1039.37L1228.35,1039.37L1228.35,1181.1L1181.1,1181.1L1181.1,992.126L1086.61,992.126L1086.61,1181.1L1039.37,1181.1L1039.37,755.906L944.882,755.906L944.882,1370.08L897.638,1370.08L897.638,1228.35L850.394,1228.35L850.394,1181.1L755.906,1181.1L755.906,1275.59L803.15,1275.59L803.15,1322.84L850.394,1322.84L850.394,1417.32L897.638,1417.32L897.638,1511.81L944.882,1511.81L944.882,1606.3L992.126,1606.3L992.126,1700.79L1370.08,1700.79L1370.08,1606.3ZM1464.57,1133.86L1417.32,1133.86L1417.32,1464.57L1464.57,1464.57L1464.57,1133.86Z" style="fill:white;"/>
                        <path d="M944.882,1606.3L944.882,1748.03L1417.32,1748.03L1417.32,1606.3L1370.08,1606.3L1370.08,1700.79L992.126,1700.79L992.126,1606.3L944.882,1606.3ZM944.882,1511.81L897.638,1511.81L897.638,1606.3L944.882,1606.3L944.882,1511.81ZM1464.57,1464.57L1417.32,1464.57L1417.32,1606.3L1464.57,1606.3L1464.57,1464.57ZM850.394,1417.32L850.394,1322.84L803.15,1322.84L803.15,1417.32L850.394,1417.32L850.394,1511.81L897.638,1511.81L897.638,1417.32L850.394,1417.32ZM1511.81,1133.86L1464.57,1133.86L1464.57,1464.57L1511.81,1464.57L1511.81,1133.86ZM897.638,755.906L897.638,1181.1L850.394,1181.1L850.394,1228.35L897.638,1228.35L897.638,1370.08L944.882,1370.08L944.882,755.906L897.638,755.906ZM803.15,1275.59L755.906,1275.59L755.906,1322.84L803.15,1322.84L803.15,1275.59ZM1417.32,1039.37L1322.84,1039.37L1322.84,1228.35L1370.08,1228.35L1370.08,1086.61L1417.32,1086.61L1417.32,1039.37ZM755.906,1275.59L755.906,1181.1L850.394,1181.1L850.394,1133.86L708.661,1133.86L708.661,1275.59L755.906,1275.59ZM1322.84,992.126L1181.1,992.126L1181.1,1181.1L1228.35,1181.1L1228.35,1039.37L1322.84,1039.37L1322.84,992.126ZM1086.61,992.126L1181.1,992.126L1181.1,944.882L1086.61,944.882M1086.61,755.906L1039.37,755.906L1039.37,1181.1L1086.61,1181.1L1086.61,755.906ZM1464.57,1086.61L1417.32,1086.61L1417.32,1133.86L1464.57,1133.86L1464.57,1086.61ZM1039.37,708.661L944.882,708.661L944.882,755.906L1039.37,755.906L1039.37,708.661Z"/>
                    </g>
                </g>
            </g>
        </g>
    </g>
</svg>
